<svg width="33" height="30" viewBox="0 0 33 30" fill="none" xmlns="http://www.w3.org/2000/svg">
<path d="M32.7104 13.7885C32.7104 12.9005 32.3576 12.0489 31.7297 11.4211C31.1019 10.7932 30.2503 10.4404 29.3623 10.4404H20.9105C20.8032 10.4402 20.7026 10.3886 20.6398 10.3017C20.577 10.2148 20.5596 10.103 20.5931 10.0012C21.3324 8.12736 21.5724 6.09364 21.2895 4.09921C20.502 1.29353 18.8333 0.483304 17.5276 0.664099C16.201 0.889818 15.2478 2.06483 15.3005 3.40951C15.3005 7.08701 12.4493 11.1047 9.89804 12.8658C9.71672 12.9909 9.60855 13.1972 9.60876 13.4175V26.9651C9.6087 27.2859 9.83618 27.5617 10.1512 27.6227C10.6293 27.7151 11.0632 27.8035 11.473 27.8905C13.275 28.3198 15.122 28.5316 16.9745 28.5213H25.6794C28.3003 28.5213 28.6927 27.0481 28.6927 26.1776C28.693 25.7159 28.5866 25.2604 28.382 24.8465C29.8541 24.1006 30.4514 22.3087 29.7212 20.8288C30.7332 20.3147 31.3708 19.276 31.3711 18.141C31.372 17.6393 31.2463 17.1455 31.0055 16.7053C32.0587 16.1121 32.7103 14.9972 32.7104 13.7885V13.7885Z" fill="#FBFAFA"/>
<path fill-rule="evenodd" clip-rule="evenodd" d="M6.26079 12.1145C7.00042 12.1145 7.60001 12.7141 7.60001 13.4537V28.1852C7.60001 28.9248 7.00042 29.5244 6.26079 29.5244H1.90832C1.16868 29.5244 0.569092 28.9248 0.569092 28.1852V13.4537C0.569092 12.7141 1.16868 12.1145 1.90832 12.1145H6.26079ZM4.58665 26.8459C5.14138 26.8459 5.59107 26.3962 5.59107 25.8415C5.59107 25.2868 5.14138 24.8371 4.58665 24.8371C4.03193 24.8371 3.58223 25.2868 3.58223 25.8415C3.58223 26.3962 4.03193 26.8459 4.58665 26.8459Z" fill="#FBFAFA"/>
</svg>
