<svg width="11" height="7" viewBox="0 0 11 7" fill="none" xmlns="http://www.w3.org/2000/svg">
<path d="M4.5358 0.29579L0.295798 4.53579C0.20207 4.62875 0.127675 4.73935 0.0769067 4.86121C0.026138 4.98307 0 5.11378 0 5.24579C0 5.3778 0.026138 5.50851 0.0769067 5.63037C0.127675 5.75223 0.20207 5.86283 0.295798 5.95579C0.483161 6.14204 0.736612 6.24658 1.0008 6.24658C1.26498 6.24658 1.51844 6.14204 1.7058 5.95579L5.2458 2.41579L8.7858 5.95579C8.97316 6.14204 9.22661 6.24658 9.4908 6.24658C9.75498 6.24658 10.0084 6.14204 10.1958 5.95579C10.2885 5.86235 10.3618 5.75153 10.4116 5.6297C10.4613 5.50786 10.4866 5.3774 10.4858 5.24579C10.4866 5.11418 10.4613 4.98372 10.4116 4.86188C10.3618 4.74005 10.2885 4.62923 10.1958 4.53579L5.9558 0.29579C5.86283 0.202061 5.75223 0.127667 5.63037 0.0768986C5.50852 0.0261297 5.37781 -8.58307e-06 5.2458 -8.58307e-06C5.11379 -8.58307e-06 4.98308 0.0261297 4.86122 0.0768986C4.73936 0.127667 4.62876 0.202061 4.5358 0.29579Z" fill="white"/>
</svg>
